<svg width="759" height="599" viewBox="0 0 759 599" fill="none" xmlns="http://www.w3.org/2000/svg">
<g clip-path="url(#clip0)">
<path d="M191.993 130.153L179.637 117.795L184.442 112.302C182.383 108.869 180.667 105.093 179.98 101.317L172.772 100.63V83.1227L179.98 82.4361C181.01 78.66 182.383 74.8838 184.442 71.451L179.637 65.9584L191.993 53.6001L197.485 58.4061C200.917 56.3464 204.692 54.63 208.468 53.9434L209.154 46.7344H226.659L227.345 53.9434C231.121 54.9732 234.896 56.3464 238.328 58.4061L243.82 53.6001L256.176 65.9584L251.371 71.451C253.43 74.8838 255.146 78.66 255.833 82.4361L263.04 83.1227V100.63L255.833 101.317C254.803 105.093 253.43 108.869 251.371 112.302L256.176 117.795L243.82 130.153L238.328 125.347C234.896 127.407 231.121 129.123 227.345 129.81L226.659 137.019H209.154L208.468 129.81C204.692 128.78 200.917 127.407 197.485 125.347L191.993 130.153ZM225.629 105.093C226.659 104.406 227.688 103.72 228.718 102.69C229.748 101.66 230.434 100.63 231.121 99.6004C233.866 94.7944 233.866 88.9586 231.121 84.1525C230.434 83.1227 229.748 82.0928 228.718 81.063C227.688 80.0331 226.659 79.3465 225.629 78.66C220.824 75.9137 214.989 75.9137 210.184 78.66C209.154 79.3465 208.124 80.0331 207.095 81.063C206.065 82.0928 205.379 83.1227 204.692 84.1525C201.946 88.9586 201.946 94.7944 204.692 99.6004C205.379 100.63 206.065 101.66 207.095 102.69C208.124 103.72 209.154 104.406 210.184 105.093C214.989 107.839 220.824 107.839 225.629 105.093Z" fill="white"/>
<path d="M133.644 100.377L129.869 91.7945L133.301 90.0781C132.958 88.0184 132.958 85.9587 132.958 83.8989L129.526 82.1825L132.958 73.6004L136.39 74.6302C137.763 72.9138 139.136 71.5406 140.852 70.1675L139.822 66.7346L148.403 62.9585L150.119 66.3914C152.179 66.0481 154.238 66.0481 156.297 66.3914L158.013 62.9585L166.594 66.3914L165.564 69.8242C167.28 71.1974 168.653 72.5705 170.026 74.2869L173.459 72.9138L177.234 81.4959L173.802 83.2124C174.145 85.2721 174.145 87.3318 173.802 89.3915L177.234 91.108L173.802 99.6901L170.369 98.6602C168.997 100.377 167.624 101.75 165.908 103.123L167.28 106.556L158.7 110.332L156.984 106.899C154.924 107.242 152.865 107.242 150.806 106.899L149.09 110.332L140.509 106.899L141.539 103.466C139.822 102.093 138.45 100.72 137.077 99.0035L133.644 100.377ZM154.924 94.8841C155.611 94.8841 156.297 94.5408 156.984 94.1975C157.67 93.8542 158.357 93.511 158.7 93.1677C161.102 91.4512 162.132 88.3617 161.789 85.6154C161.789 84.9288 161.446 84.2422 161.102 83.5557C160.759 82.8691 160.416 82.1825 160.073 81.8392C158.357 79.4362 155.268 78.4064 152.522 78.7497C151.835 78.7497 151.149 79.0929 150.462 79.4362C149.776 79.7795 149.09 80.1228 148.746 80.4661C146.344 82.1825 145.314 85.2721 145.657 88.0184C145.657 88.705 146.001 89.3915 146.344 90.0781C146.687 90.7647 147.03 91.4512 147.373 91.7945C149.09 94.1975 151.835 95.2274 154.924 94.8841Z" fill="#0C97DB"/>
<path opacity="0.2" d="M424.356 54.3753C421.267 54.3753 418.521 51.9723 418.521 48.5395C418.521 45.4499 420.924 42.7036 424.356 42.7036C427.788 42.7036 430.191 45.1066 430.191 48.5395C429.847 51.9723 427.445 54.3753 424.356 54.3753Z" fill="white"/>
<path d="M31.7068 338.959C26.9017 338.959 22.783 334.84 22.783 330.034C22.783 325.228 26.9017 321.108 31.7068 321.108C36.5119 321.108 40.6306 325.228 40.6306 330.034C40.6306 334.84 36.8552 338.959 31.7068 338.959ZM31.7068 324.541C28.6178 324.541 26.2152 326.944 26.2152 330.034C26.2152 333.123 28.6178 335.526 31.7068 335.526C34.7958 335.526 37.1984 333.123 37.1984 330.034C37.1984 326.944 34.7958 324.541 31.7068 324.541Z" fill="#0C97DB"/>
<path opacity="0.2" d="M407.195 68.7935V65.7039H410.284C411.657 65.7039 413.03 64.6741 413.03 62.9576C413.03 61.5845 412 60.2114 410.284 60.2114H407.195V57.1218C407.195 55.7486 406.165 54.3755 404.449 54.3755C403.076 54.3755 401.703 55.4053 401.703 57.1218V60.2114H398.614C397.241 60.2114 395.868 61.2412 395.868 62.9576C395.868 64.3308 396.898 65.7039 398.614 65.7039H401.703V68.7935C401.703 70.1666 402.733 71.5398 404.449 71.5398C406.165 71.5398 407.195 70.1666 407.195 68.7935Z" fill="white"/>
<path d="M21.7534 307.034C20.0372 307.034 19.0076 305.66 19.0076 304.287C19.0076 302.571 20.3805 301.541 21.7534 301.541C23.4695 301.541 24.4992 302.914 24.4992 304.287C24.4992 305.66 23.4695 307.034 21.7534 307.034Z" fill="#0C97DB"/>
<path d="M696.19 480.736C696.876 491.378 688.639 500.647 677.999 501.334L473.437 513.349L454.559 514.378L441.86 515.065L422.983 516.095L392.779 517.811L368.067 519.184L357.427 519.871L332.715 521.244L136.39 532.573C125.75 533.259 116.483 525.02 115.797 514.378L95.2032 155.988L675.253 122.002L696.19 480.736Z" fill="#0050C8"/>
<path opacity="0.1" d="M628.232 464.945L117.513 515.751C99.3225 517.467 83.191 504.423 81.1316 485.885L54.0169 212.973C52.3008 194.779 65.3433 178.644 83.8774 176.584L594.596 125.778C612.787 124.062 628.918 137.45 630.978 155.644L658.092 428.556C659.808 446.751 646.423 463.228 628.232 464.945Z" fill="white"/>
<path opacity="0.5" d="M419.208 491.379H178.607C169.34 491.379 161.789 483.827 161.789 474.558V206.109C161.789 196.84 169.34 189.288 178.607 189.288H419.208C428.475 189.288 436.026 196.84 436.026 206.109V474.215C436.026 483.484 428.475 491.379 419.208 491.379Z" fill="#7BCAFF"/>
<path d="M675.253 122.346L95.2033 155.988L92.4575 109.644C92.1143 105.182 95.5465 101.405 100.008 101.062L664.27 68.1067C668.732 67.7634 672.507 71.1963 672.85 75.659L675.253 122.346Z" fill="#D3D3D3"/>
<path d="M662.916 93.3718L104.068 125.934L105.106 143.754L663.954 111.192L662.916 93.3718Z" fill="#F2F2F2"/>
<path d="M112.423 110.07L103.171 110.608L103.709 119.861L112.961 119.323L112.423 110.07Z" fill="#F9F4EA"/>
<path d="M128.894 109.047L119.643 109.587L120.183 118.84L129.434 118.3L128.894 109.047Z" fill="#F9F4EA"/>
<path d="M145.728 108.349L136.477 108.888L137.016 118.141L146.268 117.602L145.728 108.349Z" fill="#F9F4EA"/>
<path d="M149.776 267.9C145.658 267.9 142.225 264.81 141.882 260.691L139.479 219.496C139.479 217.437 140.166 215.377 141.539 214.004C142.912 212.287 144.971 211.601 147.03 211.258L389.69 197.183C393.809 196.84 397.584 200.272 397.928 204.392L400.33 245.586C400.33 247.646 399.644 249.706 398.271 251.079C396.898 252.795 394.839 253.482 392.779 253.825L150.119 267.9C150.119 267.9 150.119 267.9 149.776 267.9ZM390.033 200.616C390.033 200.616 389.69 200.616 390.033 200.616L147.374 214.69C146.344 214.69 145.314 215.377 144.628 216.064C143.941 216.75 143.598 217.78 143.598 218.81L146.001 260.004C146.001 262.064 148.06 263.78 150.119 263.78L392.779 249.706C393.809 249.706 394.839 249.019 395.525 248.333C396.212 247.646 396.555 246.616 396.555 245.586L394.152 204.392C393.809 202.332 392.093 200.616 390.033 200.616Z" fill="#BBCEFF"/>
<path d="M153.895 337.587C149.776 337.587 146.344 334.498 146.001 330.378L143.598 289.184C143.255 284.721 146.687 281.288 150.806 280.945L393.466 266.87C397.585 266.527 401.36 269.96 401.703 274.079L404.106 315.274C404.449 319.736 401.017 323.169 396.898 323.513L154.238 337.587H153.895ZM394.152 270.303C393.809 270.303 393.809 270.303 394.152 270.303L151.493 284.378C149.433 284.378 147.717 286.438 147.717 288.497L150.12 329.692C150.12 331.751 152.179 333.468 154.238 333.468L396.898 319.393C398.958 319.393 400.674 317.333 400.674 315.274L398.271 274.079C397.928 272.02 396.212 270.303 394.152 270.303Z" fill="#BBCEFF"/>
<path d="M381.796 316.302L138.793 312.183C135.36 312.183 132.958 309.437 132.958 306.004L133.644 264.809C133.644 261.377 136.39 258.974 139.822 258.974L382.825 263.093C386.258 263.093 388.66 265.839 388.66 269.272L387.974 310.467C387.63 313.556 384.885 316.302 381.796 316.302Z" fill="#F6F3FF"/>
<path d="M158.014 407.274C155.954 407.274 154.238 406.587 152.865 405.214C151.149 403.841 150.463 401.781 150.119 399.722L147.717 358.527C147.717 356.468 148.403 354.408 149.776 353.035C151.149 351.318 153.208 350.632 155.268 350.288L397.928 336.214C402.046 335.87 405.822 339.303 406.165 343.423L408.568 384.617C408.911 389.08 405.478 392.513 401.36 392.856L158.7 406.931C158.357 407.274 158.014 407.274 158.014 407.274ZM398.271 339.99C397.928 339.99 397.928 339.99 398.271 339.99L155.611 354.065C154.581 354.065 153.552 354.751 152.865 355.438C152.179 356.124 151.835 357.154 151.835 358.184L154.238 399.378C154.238 401.438 156.297 403.154 158.357 403.154L401.017 389.08C403.076 389.08 404.792 387.02 404.792 384.96L402.389 343.766C402.046 341.706 400.33 339.99 398.271 339.99Z" fill="#BBCEFF"/>
<path opacity="0.1" d="M726.05 379.467L498.149 366.422C491.285 366.079 486.136 360.243 486.48 353.378L503.641 53.6889C503.984 46.8232 509.819 41.6739 516.683 42.0172L744.585 55.0621C751.449 55.4053 756.597 61.2412 756.254 68.1069L739.093 367.796C738.406 374.661 732.572 379.811 726.05 379.467Z" fill="white"/>
<path d="M162.132 476.961C160.073 476.961 158.357 476.274 156.984 474.901C155.268 473.528 154.581 471.469 154.238 469.409L151.835 428.214C151.835 426.155 152.522 424.095 153.895 422.722C155.268 421.005 157.327 420.319 159.386 419.976L402.046 405.901C404.105 405.901 406.165 406.587 407.538 407.961C409.254 409.334 409.94 411.393 410.284 413.453L412.686 454.647C413.029 459.11 409.597 462.543 405.478 462.886L162.819 476.961C162.132 476.961 162.132 476.961 162.132 476.961ZM402.046 409.677L159.386 423.752C158.357 423.752 157.327 424.438 156.64 425.125C155.954 425.811 155.611 426.841 155.611 427.871L158.013 469.065C158.013 471.125 160.073 472.842 162.132 472.842L404.792 458.767C406.851 458.767 408.567 456.707 408.567 454.647L406.165 413.453C406.165 412.423 405.478 411.393 404.792 410.707C404.105 410.02 403.076 409.677 402.046 409.677Z" fill="#BBCEFF"/>
<g opacity="0.6">
<path opacity="0.6" d="M248.674 270.113L146.404 268.449L146.303 274.628L248.574 276.292L248.674 270.113Z" fill="#7BCAFF"/>
<path opacity="0.6" d="M248.332 280.752L146.061 279.088L145.96 285.266L248.231 286.931L248.332 280.752Z" fill="#7BCAFF"/>
<path opacity="0.6" d="M191.357 290.592L146.056 289.854L145.955 296.033L191.256 296.77L191.357 290.592Z" fill="#7BCAFF"/>
</g>
<path opacity="0.6" d="M338.096 271.569L310.298 271.117L309.846 298.92L337.644 299.373L338.096 271.569Z" fill="#7BCAFF"/>
<path opacity="0.6" d="M370.364 271.913L342.565 271.46L342.113 299.263L369.911 299.716L370.364 271.913Z" fill="#7BCAFF"/>
<path d="M671.531 281.53L670.237 437.039L674.012 437.07L675.307 281.561L671.531 281.53Z" fill="#44CC88"/>
<path d="M501.132 383.443L500.698 435.623L504.473 435.654L504.907 383.475L501.132 383.443Z" fill="#EDF4FC"/>
<path d="M586.13 326.918L585.216 436.426L588.991 436.458L589.906 326.949L586.13 326.918Z" fill="#EDF4FC"/>
<path d="M672.507 400.407C649.511 400.064 638.528 375.004 627.888 350.974C617.248 326.944 607.294 304.287 587.387 303.944C587.387 303.944 587.387 303.944 587.044 303.944C567.137 303.944 556.84 326.601 545.857 350.287C534.874 374.317 523.548 399.034 500.895 399.034C500.895 399.034 500.895 399.034 500.552 399.034V394.914C500.552 394.914 500.552 394.914 500.895 394.914C520.802 394.914 531.099 372.258 542.082 348.571C553.065 324.541 564.391 299.824 587.044 299.824C587.044 299.824 587.044 299.824 587.387 299.824C610.04 300.168 621.023 325.227 631.663 349.257C642.303 373.287 652.257 395.944 672.164 396.288C672.164 396.288 672.164 396.288 672.507 396.288C692.414 396.288 702.711 373.631 713.694 349.944C724.677 325.914 736.004 301.197 758.656 301.197C758.656 301.197 758.656 301.197 759 301.197V305.317C759 305.317 759 305.317 758.656 305.317C738.749 305.317 728.453 327.974 717.47 351.66C706.486 375.69 695.16 400.407 672.507 400.407Z" fill="#3EA7DA"/>
<path d="M653.951 278.748L654.905 261.954L621.665 260.066L620.712 276.861L653.951 278.748Z" fill="#3EA7DA"/>
<path d="M594.888 275.485L595.841 258.69L562.602 256.802L561.648 273.596L594.888 275.485Z" fill="#3EA7DA"/>
<path d="M535.824 272.219L536.778 255.425L503.538 253.537L502.585 270.331L535.824 272.219Z" fill="#3EA7DA"/>
<path opacity="0.5" d="M279.875 360.34L176.74 366.348L177.219 374.572L280.354 368.565L279.875 360.34Z" fill="#7BCAFF"/>
<path opacity="0.5" d="M247.304 376.75L177.748 380.806L178.227 389.031L247.784 384.975L247.304 376.75Z" fill="#7BCAFF"/>
<path opacity="0.5" d="M272.741 375.179L255.266 376.196L255.744 384.421L273.219 383.404L272.741 375.179Z" fill="#7BCAFF"/>
<path opacity="0.5" d="M271.983 222.676L168.848 228.685L169.327 236.909L272.462 230.9L271.983 222.676Z" fill="#7BCAFF"/>
<path opacity="0.5" d="M230.826 239.352L169.493 242.926L169.972 251.15L231.305 247.577L230.826 239.352Z" fill="#7BCAFF"/>
<path opacity="0.5" d="M304.273 235.109L239.172 238.901L239.651 247.126L304.752 243.334L304.273 235.109Z" fill="#7BCAFF"/>
<path opacity="0.5" d="M221.918 433.549L180.801 435.942L181.28 444.167L222.396 441.774L221.918 433.549Z" fill="#7BCAFF"/>
<path opacity="0.5" d="M271.004 430.791L229.887 433.185L230.366 441.41L271.483 439.016L271.004 430.791Z" fill="#7BCAFF"/>
<path opacity="0.5" d="M251.423 446.433L181.867 450.489L182.346 458.714L251.902 454.658L251.423 446.433Z" fill="#7BCAFF"/>
<path opacity="0.5" d="M327.963 442.002L259.435 445.994L259.914 454.219L328.442 450.227L327.963 442.002Z" fill="#7BCAFF"/>
<path d="M64.3503 343.222L76.7145 353.628L95.8109 331.007L83.4467 320.6L64.3503 343.222Z" fill="#80BAFF"/>
<path d="M8.16086 422.297C14.4803 427.433 23.8367 426.596 28.6451 420.234L82.9761 349.811L66.789 336.225L6.41594 401.899C1.38509 407.542 2.17377 417.216 8.16086 422.297Z" fill="url(#paint0_linear)"/>
<path opacity="0.6" d="M64.3251 276.851C67.6474 316.598 102.683 346.255 142.545 342.627C159.873 341.065 175.09 333.699 186.426 322.964C190.463 319.201 194.277 314.72 197.095 310.074C198.918 307.308 200.796 304.21 202.01 301.003C206.315 291.491 208.682 281.316 208.445 270.37C208.388 268.657 208.385 266.611 207.995 264.842C204.673 225.096 169.637 195.439 129.443 199.011C127.727 199.068 125.623 199.402 123.852 199.79C113.001 201.403 103.096 205.557 94.6321 211.314C91.5893 213.197 89.1562 215.521 86.3909 217.79C82.3541 221.552 78.5398 226.033 75.3901 230.625C67.4897 243.291 62.7506 259.549 64.3251 276.851Z" fill="#EEFCFF"/>
<path opacity="0.3" d="M95.408 210.762L202.066 300.673C206.372 291.16 208.739 280.986 208.502 270.04L124.295 199.183C113.777 200.851 103.872 205.006 95.408 210.762Z" fill="#E3FBFF"/>
<path opacity="0.3" d="M76.4993 230.128L186.483 322.634C190.52 318.871 194.335 314.39 197.152 309.743L87.1678 217.237C83.131 221 79.3167 225.481 76.4993 230.128Z" fill="#E3FBFF"/>
<path d="M138.63 353.91C118.753 354.369 98.9769 348.028 82.4575 334.387C47.0897 304.675 42.8083 252.159 72.5485 216.863C86.9764 199.823 107.117 189.523 129.318 187.403C151.463 185.615 173.233 192.286 190.307 206.7C207.382 221.114 217.709 241.229 219.844 263.396C221.646 285.508 214.977 307.24 200.549 324.28C184.462 343.09 161.608 353.282 138.63 353.91ZM134.885 209.456C133.501 209.568 132.504 209.403 131.12 209.515C114.843 210.911 99.904 218.664 89.3453 230.89C78.7316 243.449 73.715 259.32 75.122 275.572C76.5289 291.824 84.3016 306.744 96.5532 317.293C122.331 338.942 161.086 335.813 183.087 310.142C193.701 297.584 198.718 281.713 197.311 265.461C195.904 249.208 188.131 234.289 175.879 223.74C164.183 213.965 150.001 208.891 134.885 209.456Z" fill="url(#paint1_linear)"/>
<path d="M607.638 238.033C637.155 251.764 673.194 247.645 698.936 224.645C711.292 213.66 719.872 199.585 723.991 184.48L683.834 173.152C678.685 192.033 660.838 205.077 640.931 204.048C635.439 203.704 630.291 202.331 625.485 200.271L607.638 238.033Z" fill="#3EA7DA"/>
<path d="M580.523 217.78C581.209 218.466 581.896 219.153 582.582 219.839L612.786 191.003C604.892 182.764 600.43 171.779 601.116 159.421C602.489 136.078 622.396 118.57 645.736 119.6C662.21 120.63 675.939 130.928 682.117 145.346L720.559 128.869C717.126 120.63 712.321 112.734 705.8 105.868C674.91 71.1965 621.71 68.1069 587.044 99.0026C552.722 129.898 549.633 183.108 580.523 217.78Z" fill="#EDF4FC"/>
<path d="M685.207 164.228C684.863 167.317 684.52 170.407 683.834 173.153L723.991 184.481C729.139 166.287 728.11 146.72 720.559 129.212L682.118 145.347C684.52 151.183 685.55 157.362 685.207 164.228Z" fill="#0C97DB"/>
<path d="M582.582 219.839C590.133 227.735 598.714 233.57 607.981 238.033L625.829 199.928C621.024 197.869 616.905 194.436 613.129 190.66L582.582 219.839Z" fill="#D1D9FE"/>
<path d="M523.204 103.809C528.695 102.092 534.873 103.466 538.992 107.928C541.051 109.988 542.081 112.734 542.424 115.481L535.216 116.511C534.53 113.078 531.784 110.331 528.352 110.331C527.322 110.331 526.293 110.331 525.606 110.675L523.204 103.809Z" fill="#EDF4FC"/>
<path d="M518.055 106.555L518.399 106.211L523.204 111.704C521.831 113.077 520.801 114.794 520.458 116.853C520.115 120.973 523.204 124.406 527.322 124.749C530.068 124.749 532.814 123.376 534.187 120.973L540.708 124.749C540.022 126.122 538.992 127.495 537.619 128.525C531.441 134.018 522.174 133.331 516.683 127.495C511.191 121.316 511.877 112.047 518.055 106.555Z" fill="#FFC550"/>
<path d="M535.217 118.227C535.217 117.541 535.217 117.197 535.217 116.511L542.425 115.481C543.111 118.914 542.425 122.003 540.708 125.093L534.187 121.317C534.874 120.287 535.217 119.257 535.217 118.227Z" fill="#FFC550"/>
<path d="M518.399 106.213C519.772 104.839 521.488 104.153 523.204 103.466L525.607 110.332C524.577 110.675 523.891 111.019 523.204 111.705L518.399 106.213Z" fill="#44CC88"/>
<path d="M535.903 213.66C533.501 218.809 528.009 222.242 521.831 221.899C518.742 221.899 516.34 220.869 513.937 219.152L518.399 213.317C521.145 215.376 524.92 215.033 527.666 212.973C528.352 212.287 529.039 211.6 529.382 210.914L535.903 213.66Z" fill="#0C97DB"/>
<path d="M537.277 207.824V208.168L530.07 207.481C530.413 205.421 529.726 203.362 528.353 201.988C525.608 198.899 520.802 198.556 518.057 201.302C515.997 203.362 514.968 206.108 515.997 208.854L508.79 210.914C508.446 209.541 508.103 207.824 508.446 206.108C508.79 197.869 515.997 191.69 523.891 192.033C531.786 192.72 537.964 199.585 537.277 207.824Z" fill="#D1D9FE"/>
<path d="M517.026 211.944C517.369 212.287 517.713 212.63 518.056 212.973L513.594 218.809C510.848 216.75 508.789 214.003 508.102 210.914L515.31 208.854C515.996 209.884 516.34 210.914 517.026 211.944Z" fill="#EDF4FC"/>
<path d="M537.276 208.167C537.276 209.883 536.59 211.943 535.904 213.316L529.382 209.883C529.726 209.197 530.069 208.167 530.069 207.137L537.276 208.167Z" fill="#FFC550"/>
<path d="M518.742 175.557C513.594 173.154 510.162 167.661 510.505 161.482C510.505 158.392 511.535 155.989 513.251 153.586L519.086 158.049C517.026 160.795 517.37 164.572 519.429 167.318C520.115 168.004 520.802 168.691 521.488 169.034L518.742 175.557Z" fill="#D1D9FE"/>
<path d="M524.234 176.929H523.891L524.577 169.72C526.637 170.063 528.696 169.377 530.069 168.003C533.158 165.257 533.501 160.451 530.755 157.705C528.696 155.645 525.95 154.615 523.204 155.645L521.145 148.436C522.518 148.093 524.234 147.75 525.95 148.093C534.188 148.436 540.366 155.645 540.022 163.541C539.336 171.093 532.471 177.615 524.234 176.929Z" fill="#0C97DB"/>
<path d="M520.459 156.674C520.116 157.018 519.772 157.361 519.429 157.704L513.594 153.242C515.654 150.495 518.4 148.436 521.489 147.749L523.548 154.958C522.175 155.301 521.145 155.988 520.459 156.674Z" fill="#FFC550"/>
<path d="M523.891 176.929C522.175 176.929 520.115 176.243 518.742 175.556L522.175 169.034C522.861 169.377 523.891 169.72 524.92 169.72L523.891 176.929Z" fill="#EDF4FC"/>
<path opacity="0.5" d="M663.584 489.319L641.617 543.558C640.588 546.648 637.155 548.021 634.066 546.648L559.93 516.782C556.841 515.752 555.468 512.319 556.841 509.23L578.807 454.991C579.837 451.901 583.269 450.528 586.358 451.901L660.495 481.767C663.584 483.14 664.957 486.573 663.584 489.319Z" fill="#ABB2B7"/>
<path opacity="0.5" d="M667.702 483.139L648.825 538.408C647.795 541.498 644.706 542.871 641.617 541.841L566.108 515.751C563.019 514.722 561.646 511.632 562.675 508.542L581.553 453.273C582.582 450.184 585.672 448.811 588.761 449.841L664.27 475.93C667.016 476.96 668.732 480.05 667.702 483.139Z" fill="#CAD3DB"/>
<path d="M673.537 474.558L658.092 530.856C657.406 533.946 653.973 535.662 651.228 534.976L574.002 514.035C570.913 513.349 569.197 509.916 569.883 507.17L585.329 450.871C586.015 447.781 589.447 446.065 592.193 446.751L669.419 467.692C672.508 468.378 674.224 471.468 673.537 474.558Z" fill="white"/>
<path d="M673.537 474.558L670.105 486.916L581.896 462.886L585.328 450.528C586.015 447.438 589.447 445.722 592.193 446.408L669.418 467.349C672.507 468.378 674.223 471.468 673.537 474.558Z" fill="#0C97DB"/>
<path d="M669.784 486.936L581.709 462.884L580.624 466.858L668.699 490.91L669.784 486.936Z" fill="white"/>
<path d="M612.1 459.111C611.071 462.887 607.295 464.947 603.863 463.917C600.087 462.887 598.028 459.111 599.058 455.678C600.087 451.902 603.863 449.842 607.295 450.872C611.07 451.559 613.13 455.335 612.1 459.111Z" fill="#32A066"/>
<path d="M659.122 471.811C658.092 475.587 654.317 477.647 650.884 476.617C647.109 475.587 645.05 471.811 646.079 468.378C647.109 464.602 650.884 462.542 654.317 463.572C657.749 464.602 660.152 468.378 659.122 471.811Z" fill="#32A066"/>
<path d="M605.579 461.856C605.235 461.856 604.892 461.856 604.206 461.856C601.803 461.169 600.087 458.766 600.773 456.02L603.519 446.408C604.206 444.005 606.951 442.289 609.354 442.975C611.757 443.662 613.473 446.065 612.786 448.811L610.04 458.423C609.697 460.483 607.638 461.856 605.579 461.856Z" fill="#FFC550"/>
<path d="M652.258 474.902C651.914 474.902 651.571 474.902 650.885 474.902C648.482 474.215 646.766 471.812 647.452 469.066L650.198 459.111C650.885 456.708 653.287 454.991 656.033 455.678C658.436 456.365 660.152 458.768 659.465 461.514L656.719 471.469C656.376 473.529 654.317 474.902 652.258 474.902Z" fill="#FFC550"/>
<path d="M597.464 479.282L588.855 476.931L586.867 484.216L595.475 486.567L597.464 479.282Z" fill="#0C97DB"/>
<path d="M656.869 495.464L648.26 493.112L646.27 500.398L654.879 502.75L656.869 495.464Z" fill="#0C97DB"/>
<path d="M642.11 491.347L633.501 488.996L631.513 496.282L640.121 498.633L642.11 491.347Z" fill="#0C97DB"/>
<path d="M627.369 487.245L618.76 484.895L616.771 492.18L625.38 494.531L627.369 487.245Z" fill="#0C97DB"/>
<path d="M612.297 483.053L603.688 480.702L601.699 487.988L610.308 490.339L612.297 483.053Z" fill="#0C97DB"/>
<path d="M594.415 490.997L585.806 488.646L583.817 495.932L592.426 498.283L594.415 490.997Z" fill="#0C97DB"/>
<path d="M653.472 507.077L644.863 504.726L642.874 512.011L651.483 514.362L653.472 507.077Z" fill="#0C97DB"/>
<path d="M638.73 502.973L630.121 500.622L628.132 507.908L636.741 510.259L638.73 502.973Z" fill="#0C97DB"/>
<path d="M623.914 499.217L615.305 496.865L613.316 504.15L621.924 506.502L623.914 499.217Z" fill="#0C97DB"/>
<path d="M609.157 495.1L600.548 492.749L598.559 500.035L607.168 502.386L609.157 495.1Z" fill="#0C97DB"/>
<path d="M590.959 502.969L582.35 500.617L580.361 507.902L588.969 510.254L590.959 502.969Z" fill="#0C97DB"/>
<path d="M650.332 519.123L641.723 516.772L639.734 524.058L648.343 526.409L650.332 519.123Z" fill="#0C97DB"/>
<path d="M635.6 515.041L626.991 512.689L625.001 519.975L633.61 522.327L635.6 515.041Z" fill="#0C97DB"/>
<path d="M620.849 510.918L612.24 508.567L610.251 515.853L618.86 518.204L620.849 510.918Z" fill="#0C97DB"/>
<path d="M606.107 506.815L597.498 504.464L595.509 511.75L604.118 514.101L606.107 506.815Z" fill="#0C97DB"/>
<path d="M398.773 548.087C398.773 548.087 400.183 558.306 399.478 564.296C398.773 570.286 383.977 594.951 378.34 593.894C372.703 592.837 370.942 590.723 369.533 589.666C368.124 588.609 369.533 581.209 377.988 564.296C382.568 555.487 384.329 548.087 384.329 548.087H398.773Z" fill="url(#paint2_linear)"/>
<path d="M419.206 548.793C419.206 548.793 420.968 566.763 421.32 572.753C421.672 578.743 420.263 598.828 414.626 598.828C408.99 598.828 411.103 598.828 407.933 598.828C402.648 598.828 400.887 579.448 402.648 570.639C404.058 561.478 405.819 549.145 405.819 549.145H419.206V548.793Z" fill="url(#paint3_linear)"/>
<path d="M400.887 309.894L347.69 307.78C347.69 307.78 340.644 436.038 382.92 550.202H399.478C394.193 443.085 383.977 428.639 385.034 425.115C386.443 421.239 394.898 347.596 394.898 347.596L400.887 309.894Z" fill="url(#paint4_linear)"/>
<path d="M391.727 309.542L462.891 312.713C462.891 312.713 426.956 410.316 435.059 428.639C447.742 458.941 421.672 549.85 421.672 549.85H404.057C405.466 520.252 404.762 436.038 401.944 428.639L391.727 309.542Z" fill="url(#paint5_linear)"/>
<path d="M359.195 119.528C358.794 131.507 358.944 140.343 366.018 145.731C381.749 153.781 405.137 141.131 392.351 131.147C389.032 133.409 385.801 134.265 385.098 134.221C382.966 134.44 379.912 132.483 379.912 132.483C379.912 132.483 368.583 122.705 366.102 117.253L359.195 119.528Z" fill="#0050C8"/>
<path d="M479.097 25.5403C479.097 25.5403 481.563 9.33184 481.563 4.04646C481.563 -1.23892 465.709 0.170518 462.186 0.170518C458.663 0.170518 458.663 3.34174 458.663 8.27476C458.663 13.2078 467.471 21.312 467.471 21.312L469.585 29.4163L479.097 25.5403Z" fill="#FFCDD3"/>
<path d="M430.832 125.257L475.573 96.3641L467.47 27.6542L483.324 21.6641C483.324 21.6641 516.792 99.5353 513.621 102.706C510.803 105.878 450.56 170.712 450.56 170.712L430.832 125.257Z" fill="url(#paint6_linear)"/>
<path d="M434.707 334.911C439.639 334.911 444.571 334.559 449.504 333.854C455.14 306.37 460.072 264.792 449.856 228.851C432.946 169.655 418.149 132.657 418.149 132.657C418.149 132.657 379.397 149.57 376.226 149.218C373.055 148.866 354.031 183.397 354.031 183.397L354.736 154.151H337.826C337.826 154.151 322.325 215.814 322.325 222.156C322.325 228.146 327.609 242.945 332.894 242.945C337.826 242.945 347.338 236.251 349.804 234.841L332.541 313.065C362.487 329.626 401.239 334.911 434.707 334.911Z" fill="url(#paint7_linear)"/>
<path d="M390.318 144.637L433.65 124.905C433.65 124.905 448.446 161.902 465.357 221.099C482.267 280.295 459.72 332.444 459.72 332.444C459.72 332.444 398.773 344.072 350.156 321.168L366.714 220.746L390.318 144.637Z" fill="white"/>
<path d="M465.71 220.042C448.8 160.846 434.355 123.849 434.355 123.849L414.979 129.134C414.979 129.134 414.275 131.248 412.865 135.124C408.99 146.4 401.24 170.008 402.297 177.759C405.115 195.377 405.115 213.7 404.763 231.67C404.058 248.936 402.297 266.201 399.478 283.115C396.66 299.323 392.432 315.532 386.796 331.388C403.001 334.207 419.559 335.264 434.708 335.264C446.686 334.911 458.664 333.15 470.29 330.331C473.813 299.323 475.926 254.926 465.71 220.042Z" fill="url(#paint8_linear)"/>
<path d="M340.292 154.151C340.292 154.151 339.235 142.171 340.292 141.466C341.349 140.762 346.985 137.238 349.804 137.943C352.622 138.647 357.906 142.876 358.611 144.638C358.963 146.752 360.725 149.923 358.611 150.628C356.497 150.98 352.27 154.151 352.27 154.151H340.292Z" fill="#FFCDD3"/>
<path d="M389.979 129.585C389.979 129.585 392.875 139.653 390.434 144.795C388.784 148.575 403.687 141.746 412.083 137.331C413.293 134.936 414.569 131.485 414.569 131.485L403.037 118.403L389.979 129.585Z" fill="url(#paint9_linear)"/>
<path d="M385.099 134.222C380.813 135.012 369.105 124.743 366.668 118.587C363.309 110.256 359.186 91.6375 364.155 85.5951C369.124 79.5527 392.728 74.6826 396.571 80.9263C400.062 87.1479 404.407 102.25 404.646 109.679C405.43 125.262 389.714 133.806 385.099 134.222Z" fill="#FFCDD3"/>
<path d="M379.326 117.404L372.255 117.783C372.255 117.783 374.288 112.477 372.652 108.808C377.209 115.235 379.326 117.404 379.326 117.404Z" fill="url(#paint10_linear)"/>
<path d="M359.195 119.529C359.637 112.496 360.146 104.408 359.293 95.5278C358.029 70.7344 375.434 69.0049 375.434 69.0049C387.897 61.6687 400.528 74.1141 405.141 79.3471C409.402 84.5579 418.87 91.1555 425.917 108.192C432.965 125.229 423.843 129.951 423.843 129.951L414.239 131.112C414.239 131.112 406.594 123.57 402.707 118.03C404.027 113.876 404.204 111.063 404.204 111.063C404.204 111.063 404.187 100.117 401.418 99.237C396.427 105.631 385.227 87.2738 377.406 82.5451C369.585 77.8164 373.03 90.39 366.546 92.4535C357.908 95.0876 364.64 113.181 366.645 118.939L359.195 119.529Z" fill="#0050C8"/>
<path d="M404.293 109.656C404.293 109.656 410.888 105.834 409.857 99.767C408.827 93.7003 400.981 94.972 401.726 99.9616C402.493 104.6 404.293 109.656 404.293 109.656Z" fill="#FFCDD3"/>
</g>
<defs>
<linearGradient id="paint0_linear" x1="2.3748" y1="381.94" x2="84.1797" y2="379.719" gradientUnits="userSpaceOnUse">
<stop stop-color="#3F67FD"/>
<stop offset="1" stop-color="#4197FF"/>
</linearGradient>
<linearGradient id="paint1_linear" x1="52.9289" y1="272.732" x2="219.862" y2="268.199" gradientUnits="userSpaceOnUse">
<stop stop-color="#3F67FD"/>
<stop offset="1" stop-color="#4197FF"/>
</linearGradient>
<linearGradient id="paint2_linear" x1="371.961" y1="568.402" x2="398.006" y2="572.642" gradientUnits="userSpaceOnUse">
<stop offset="0.9999" stop-color="#3F3D56"/>
<stop offset="1" stop-color="#EFB52E"/>
</linearGradient>
<linearGradient id="paint3_linear" x1="401.672" y1="573.859" x2="421.369" y2="573.859" gradientUnits="userSpaceOnUse">
<stop offset="0.9999" stop-color="#3F3D56"/>
<stop offset="1" stop-color="#EFB52E"/>
</linearGradient>
<linearGradient id="paint4_linear" x1="345.675" y1="307.712" x2="415.362" y2="311.945" gradientUnits="userSpaceOnUse">
<stop stop-color="#0C97DB"/>
<stop offset="0.0001" stop-color="#0C97DB"/>
</linearGradient>
<linearGradient id="paint5_linear" x1="389.637" y1="309.474" x2="481.827" y2="316.97" gradientUnits="userSpaceOnUse">
<stop stop-color="#3EA7DA"/>
<stop offset="0.0001" stop-color="#0C97DA"/>
</linearGradient>
<linearGradient id="paint6_linear" x1="430.802" y1="95.9222" x2="513.686" y2="95.9222" gradientUnits="userSpaceOnUse">
<stop stop-color="#3EA7DA"/>
<stop offset="0.0001" stop-color="#3EA7DA"/>
</linearGradient>
<linearGradient id="paint7_linear" x1="296.372" y1="269.293" x2="463.437" y2="225.55" gradientUnits="userSpaceOnUse">
<stop stop-color="#3EA7DA"/>
<stop offset="0.0001" stop-color="#3EA7DA"/>
</linearGradient>
<linearGradient id="paint8_linear" x1="380.412" y1="229.341" x2="473.165" y2="229.341" gradientUnits="userSpaceOnUse">
<stop stop-color="#3EA7DA"/>
<stop offset="0.0001" stop-color="#3EA7DA"/>
</linearGradient>
<linearGradient id="paint9_linear" x1="389.951" y1="131.684" x2="414.434" y2="133.224" gradientUnits="userSpaceOnUse">
<stop offset="0.9999" stop-color="#FFCDD3"/>
<stop offset="1" stop-color="#EFBB6F"/>
</linearGradient>
<linearGradient id="paint10_linear" x1="379.495" y1="112.755" x2="372.453" y2="113.455" gradientUnits="userSpaceOnUse">
<stop offset="0.9999" stop-color="#FFCDD3"/>
<stop offset="1" stop-color="#EFBB6F"/>
</linearGradient>
<clipPath id="clip0">
<rect width="759" height="599" fill="white"/>
</clipPath>
</defs>
</svg>
